<?xml version="1.0" standalone="no"?><!DOCTYPE svg PUBLIC "-//W3C//DTD SVG 1.1//EN" "http://www.w3.org/Graphics/SVG/1.1/DTD/svg11.dtd"><svg t="1581420382310" class="icon" viewBox="0 0 1054 1024" version="1.1" xmlns="http://www.w3.org/2000/svg" p-id="2653" xmlns:xlink="http://www.w3.org/1999/xlink" width="131.75" height="128"><defs><style type="text/css"></style></defs><path d="M526.997503 0c-282.894476 0-511.998946 235.067751-511.998946 525.009743 0 231.995758 146.672639 428.723823 350.056691 498.084621 25.599947 4.939284 34.996634-11.294094 34.996634-25.238536 0-12.46868-0.421646-45.507671-0.632469-89.268522-142.456177 31.683699-172.453292-70.414914-172.453292-70.414914-23.311011-60.596581-56.982471-76.799842-56.982471-76.799842-46.381081-32.526992 3.61411-31.894523 3.61411-31.894522 51.3806 3.674345 78.396074 54.091183 78.396074 54.091182 45.658259 80.263364 119.867989 57.072824 149.112164 43.670499 4.607991-33.972636 17.799493-57.102941 32.436639-70.234209-113.693884-13.131267-233.200461-58.277527-233.200461-259.432877 0-57.313764 19.817371-104.116492 52.705774-140.890063-5.782576-13.251737-23.07007-66.620098 4.457402-138.93242 0 0 42.887441-14.09503 140.79971 53.820124a479.471954 479.471954 0 0 1 127.999737-17.739257c43.51991 0.271058 87.039821 6.023517 127.999736 17.739257 97.2798-67.915154 140.167241-53.820124 140.167241-53.820124 27.497355 72.312322 10.239979 125.680682 5.11999 138.93242 32.617345 36.743454 52.464833 83.576299 52.464833 140.890063 0 201.66735-119.687283 246.06067-233.59199 259.011231 17.919963 15.721379 34.54487 47.947195 34.54487 97.099094 0 70.264326-0.602352 126.70468-0.602352 143.781351 0 13.763736 8.944923 30.17782 35.17734 24.937361 204.829696-68.878917 351.411982-265.75757 351.411982-497.391917 0-289.941991-229.255057-525.009743-511.998946-525.009743" p-id="2654"></path></svg>